<svg version="1.1" id="Layer_1" xmlns="http://www.w3.org/2000/svg" xmlns:xlink="http://www.w3.org/1999/xlink" x="0px" y="0px"
	 width="100%" viewBox="0 0 409 405" enable-background="new 0 0 409 405" xml:space="preserve">
<path fill="none" opacity="1.000000" stroke="#000000" stroke-linecap="round" stroke-linejoin="round" stroke-width="5.000000"
	d="
M281.000000,108.750000 
	C289.000000,106.598740 289.000000,106.598740 289.000000,98.000000 
	C289.000000,88.500000 289.046967,78.999680 288.982025,69.500122 
	C288.944275,63.978317 287.913116,63.009022 282.500000,63.003902 
	C269.666656,62.991760 256.833344,63.000000 244.000000,63.000000 
	C231.000000,63.000000 217.998169,63.136417 205.000504,62.962345 
	C191.500504,62.781548 177.993912,62.816154 164.498520,62.728214 
	C153.519241,62.656662 142.499573,62.811100 131.499496,62.963291 
	C127.983536,63.011936 126.453941,64.479988 126.474403,68.000145 
	C126.542191,79.666420 126.468933,91.333466 126.518639,102.999924 
	C126.533867,106.573647 129.515106,109.180565 133.990494,108.667183 
	C146.988937,107.176125 160.002502,108.141403 173.000381,108.066254 
	C206.999252,107.869675 241.000000,107.994942 275.000000,108.013847 
	C276.838684,108.014870 278.728180,107.656639 280.500000,108.500000 
"/>
<path fill="none" opacity="1.000000" stroke="#000000" stroke-linecap="round" stroke-linejoin="round" stroke-width="4.000000"
	d="
M111.500000,305.000000 
	C109.251625,311.232544 110.966438,317.671631 110.540817,324.002747 
	C110.154015,329.756622 111.904518,334.860016 115.445847,339.540955 
	C120.167671,345.782288 126.242416,348.987915 134.000000,348.990784 
	C183.000000,349.008942 232.000031,348.968811 280.999969,349.020813 
	C294.105713,349.034729 304.425079,338.038452 304.408173,326.000122 
	C304.398102,318.841034 303.637909,311.478424 304.006348,304.526825 
	C304.458099,296.002197 303.959381,287.485260 304.248871,278.991455 
	C304.997833,257.016968 304.500000,235.000000 304.500000,213.000000 
	C304.500000,197.000000 304.500000,181.000000 304.500000,165.000000 
	C304.500000,159.333328 304.272308,153.655457 304.550659,148.002487 
	C305.028229,138.303909 296.358856,125.581894 285.031738,124.233383 
	C281.845825,123.854088 278.688049,123.522797 275.499969,123.517662 
	C254.333359,123.483551 233.166672,123.500000 212.000000,123.500000 
	C187.333328,123.500000 162.665497,123.640343 138.000549,123.434082 
	C127.458595,123.345924 119.086411,126.834946 113.515167,136.009216 
	C109.741440,142.223480 109.934273,149.264297 110.772087,155.965988 
	C111.151367,158.999832 110.297516,161.645630 110.396500,164.503586 
	C110.863792,177.994705 110.978172,191.525162 110.784035,204.996887 
	C110.414093,230.668121 110.641479,256.334045 110.620125,282.000092 
	C110.615410,287.666077 110.455040,293.333221 110.486221,299.000061 
	C110.496719,300.907471 110.423050,302.801880 111.500000,304.500000 
"/>
<path fill="none" opacity="1.000000" stroke="#000000" stroke-linecap="round" stroke-linejoin="round" stroke-width="5.000000"
	d="
M303.000000,304.500000 
	C302.146179,303.456207 300.987061,304.031128 299.999969,304.030579 
	C238.333328,303.996582 176.666672,303.996552 115.000015,304.030548 
	C114.012947,304.031097 112.853813,303.456207 112.000000,304.500000 
"/>
<path fill="none" opacity="1.000000" stroke="#000000" stroke-linecap="round" stroke-linejoin="round" stroke-width="4.000000"
	d="
M303.000000,158.500000 
	C299.166656,158.500000 295.333344,158.500000 291.500000,158.500000 
	C235.500000,158.500000 179.500000,158.500000 123.500000,158.500000 
	C119.666664,158.500000 115.833336,158.500000 112.000000,158.500000 
"/>
<path fill="none" opacity="1.000000" stroke="#000000" stroke-linecap="round" stroke-linejoin="round" stroke-width="5.000000"
	d="
M134.000000,109.000000 
	C134.000000,113.500000 134.000000,118.000000 134.000000,122.500000 
"/>
<path fill="none" opacity="1.000000" stroke="#000000" stroke-linecap="round" stroke-linejoin="round" stroke-width="5.000000"
	d="
M281.000000,109.000000 
	C281.000000,113.500000 281.000000,118.000000 281.000000,122.500000 
"/>
<path fill="none" opacity="1.000000" stroke="#000000" stroke-linecap="round" stroke-linejoin="round" stroke-width="4.000000"
	d="
M276.000000,68.500000 
	C273.121521,68.863800 273.506042,71.052895 273.503906,73.000008 
	C273.494720,81.333328 273.531464,89.666855 273.480957,97.999886 
	C273.465668,100.515762 273.642181,102.544830 277.000000,102.544830 
	C280.357819,102.544830 280.533905,100.515747 280.519073,97.999886 
	C280.469025,89.500183 280.415070,80.998695 280.545715,72.500702 
	C280.591888,69.497482 279.491241,68.175423 276.500000,68.500000 
"/>
<path fill="none" opacity="1.000000" stroke="#000000" stroke-linecap="round" stroke-linejoin="round" stroke-width="4.000000"
	d="
M260.000000,68.500000 
	C259.097015,68.597023 258.514282,69.096870 258.512604,70.000023 
	C258.492981,80.669258 258.500000,91.338539 258.500000,102.033836 
	C260.833344,102.730179 262.666656,102.693443 264.750000,101.905640 
	C264.750000,91.003159 264.750000,80.002525 264.750000,68.710220 
	C263.342865,68.640617 261.921448,68.570312 260.500000,68.500000 
"/>
<path fill="none" opacity="1.000000" stroke="#000000" stroke-linecap="round" stroke-linejoin="round" stroke-width="4.000000"
	d="
M245.000000,68.500000 
	C242.498230,68.790565 242.339996,70.586998 242.509918,72.499123 
	C243.265396,81.001152 243.255997,89.491753 242.572296,98.005806 
	C242.401672,100.130783 242.521301,102.610291 246.000870,102.556923 
	C248.950867,102.511696 249.556564,101.058472 249.531891,98.499695 
	C249.448334,89.833832 249.416275,81.165413 249.545731,72.500687 
	C249.590622,69.497566 248.491241,68.175423 245.500000,68.500000 
"/>
<path fill="none" opacity="1.000000" stroke="#000000" stroke-linecap="round" stroke-linejoin="round" stroke-width="4.000000"
	d="
M183.000000,68.500000 
	C180.202911,68.768120 181.023758,70.899185 181.017822,72.500069 
	C180.981995,82.166595 181.000000,91.833336 181.000000,101.500000 
	C186.742355,103.414391 187.466461,102.994072 187.490463,97.499962 
	C187.526901,89.166779 187.336136,80.828506 187.581604,72.502403 
	C187.678177,69.226425 186.761307,67.905365 183.500000,68.500000 
"/>
<path fill="none" opacity="1.000000" stroke="#000000" stroke-linecap="round" stroke-linejoin="round" stroke-width="4.000000"
	d="
M168.000000,68.500000 
	C166.287766,68.767586 165.482315,69.724991 165.486984,71.500031 
	C165.513733,81.672760 165.500000,91.845604 165.500000,101.818199 
	C172.200928,103.442505 172.725693,101.418953 172.577911,96.997398 
	C172.305252,88.839844 172.412613,80.665237 172.545670,72.500748 
	C172.594635,69.497307 171.491241,68.175423 168.500000,68.500000 
"/>
<path fill="none" opacity="1.000000" stroke="#000000" stroke-linecap="round" stroke-linejoin="round" stroke-width="4.000000"
	d="
M152.000000,68.500000 
	C149.202911,68.768120 150.023758,70.899185 150.017822,72.500069 
	C149.981995,82.166595 150.000000,91.833336 149.999725,101.503235 
	C151.880508,103.100655 153.959335,102.321266 156.500000,102.573906 
	C156.500000,91.672043 156.416718,81.334976 156.546204,71.000580 
	C156.590164,67.493370 154.210266,68.730240 152.500000,68.500000 
"/>
<path fill="none" opacity="1.000000" stroke="#000000" stroke-linecap="round" stroke-linejoin="round" stroke-width="4.000000"
	d="
M137.000000,68.500000 
	C134.521515,68.805107 134.477509,70.577187 134.485092,72.500061 
	C134.519257,81.166588 134.543701,89.833694 134.472794,98.499779 
	C134.452118,101.028351 135.112411,102.537857 138.000000,102.537857 
	C140.887589,102.537857 141.547302,101.028320 141.527191,98.499786 
	C141.456955,89.667007 141.328506,80.828323 141.586288,72.002518 
	C141.686310,68.578491 140.147369,68.164909 137.500000,68.500000 
"/>
<path fill="none" opacity="1.000000" stroke="#000000" stroke-linecap="round" stroke-linejoin="round" stroke-width="4.000000"
	d="
M200.500000,180.500000 
	C194.088806,182.621994 187.364487,183.722412 181.472092,187.455948 
	C162.695648,199.353058 153.986328,217.874710 156.725815,237.969208 
	C159.665604,259.532745 174.189346,275.709869 195.504898,280.980194 
	C219.576355,286.931915 243.980545,274.385956 254.036606,252.516830 
	C265.995117,226.510452 253.627945,197.241333 229.987762,185.524673 
	C220.862442,181.001953 211.053604,179.922455 201.000000,180.500000 
"/>
<path fill="none" opacity="1.000000" stroke="#000000" stroke-linecap="round" stroke-linejoin="round" stroke-width="5.000000"
	d="
M202.500000,199.000000 
	C199.527588,199.402649 198.854904,201.204315 198.941055,204.001816 
	C199.130890,210.167099 199.000000,216.342255 199.000000,223.000000 
	C192.509247,223.000000 186.498032,223.170425 180.502380,222.938446 
	C176.679581,222.790543 175.478073,224.304443 175.436722,227.999298 
	C175.302353,240.001190 175.196411,240.000000 187.000000,240.000000 
	C190.839249,240.000000 194.678497,240.000000 199.000000,240.000000 
	C199.000000,246.490753 199.182175,252.503006 198.931030,258.497101 
	C198.782639,262.038605 199.959091,263.296265 203.504044,263.060913 
	C207.492813,262.796082 211.512695,263.000000 216.000000,263.000000 
	C216.000000,256.509247 216.182159,250.496994 215.931030,244.502884 
	C215.782639,240.961395 216.959763,239.741943 220.503555,239.934677 
	C225.322632,240.196793 230.173721,239.840515 234.997620,240.053879 
	C238.439499,240.206085 239.402847,238.637909 239.543274,235.501938 
	C240.103226,222.997223 240.164948,222.999985 227.500000,223.000000 
	C223.825760,223.000000 220.151520,223.000000 216.000000,223.000000 
	C216.000000,215.007126 216.000000,207.492706 216.000000,200.289734 
	C211.492386,197.678589 207.070587,200.534393 203.000000,199.000000 
"/>
<path fill="none" opacity="1.000000" stroke="#000000" stroke-linecap="round" stroke-linejoin="round" stroke-width="4.000000"
	d="
M230.500000,68.000000 
	C227.937637,68.161560 227.398407,69.590645 227.441254,72.001045 
	C227.592300,80.498360 227.474091,89.000107 227.509399,97.499962 
	C227.531738,102.874634 227.774872,103.026077 234.000000,101.910385 
	C234.000000,91.672043 233.858185,81.332756 234.095886,71.002205 
	C234.158310,68.289253 232.026443,68.973564 231.000000,68.000000 
"/>
<path fill="none" opacity="1.000000" stroke="#000000" stroke-linecap="round" stroke-linejoin="round" stroke-width="4.000000"
	d="
M215.500000,68.000000 
	C212.750854,68.269188 211.886322,69.718323 211.934891,72.501137 
	C212.103516,82.164856 212.000000,91.833336 212.000000,101.500000 
	C217.742355,103.414391 218.465942,102.994080 218.490540,97.499954 
	C218.527100,89.333458 218.445740,81.166069 218.535767,73.000397 
	C218.560196,70.784386 218.316681,68.924995 216.000000,68.000000 
"/>
<path fill="none" opacity="1.000000" stroke="#000000" stroke-linecap="round" stroke-linejoin="round" stroke-width="4.000000"
	d="
M199.500000,68.000000 
	C196.628296,68.543648 196.457642,70.627129 196.475876,73.000183 
	C196.538620,81.166367 196.473694,89.333450 196.509308,97.499962 
	C196.532761,102.874641 196.774872,103.026077 203.000000,101.910385 
	C203.000000,91.672043 202.858185,81.332756 203.095886,71.002205 
	C203.158310,68.289253 201.026443,68.973564 200.000000,68.000000 
"/>
</svg>