<?xml version="1.0" encoding="UTF-8"?>
<svg version="1.1" xmlns="http://www.w3.org/2000/svg" width="32" height="32">
<path d="M0 0 C2.25998389 0.87808291 3.35788823 1.79859915 4.83984375 3.71484375 C5.54793225 7.89256587 5.78687326 10.23442981 3.48046875 13.83984375 C1.69609273 15.92424759 -0.17273235 17.82417071 -2.16015625 19.71484375 C-2.66160156 20.24722656 -3.16304687 20.77960937 -3.6796875 21.328125 C-6.41738024 24.00548291 -8.60622997 25.05098566 -12.34765625 25.21484375 C-16.92788211 24.61415839 -16.92788211 24.61415839 -19.16015625 21.71484375 C-20.41651333 18.48126898 -20.21581916 15.9959582 -19.16015625 12.71484375 C-14.78961739 6.06721742 -8.49500876 -0.90170484 0 0 Z M-7.47265625 6.21484375 C-8.30796875 7.45234375 -8.30796875 7.45234375 -9.16015625 8.71484375 C-6.85015625 10.69484375 -4.54015625 12.67484375 -2.16015625 14.71484375 C1.06386321 12.01259444 1.06386321 12.01259444 2.21484375 8.08984375 C2.04968626 5.53257179 2.04968626 5.53257179 -0.16015625 3.71484375 C-3.96435708 3.01406991 -4.7925701 3.31745332 -7.47265625 6.21484375 Z M-12.16015625 10.71484375 C-15.38417571 13.41709306 -15.38417571 13.41709306 -16.53515625 17.33984375 C-16.36999876 19.89711571 -16.36999876 19.89711571 -14.16015625 21.71484375 C-11.74597753 22.29886508 -11.74597753 22.29886508 -9.16015625 21.71484375 C-6.82384877 19.31625331 -6.82384877 19.31625331 -5.16015625 16.71484375 C-7.47015625 14.73484375 -9.78015625 12.75484375 -12.16015625 10.71484375 Z " fill="#000000" transform="translate(23.16015625,3.28515625)"/>
</svg>
