<?xml version="1.0" encoding="UTF-8"?>
<svg version="1.1" xmlns="http://www.w3.org/2000/svg" width="64" height="64">
<path d="M0 0 C4.18669353 0.61704712 6.37617864 3.19215633 9.2109375 6.10546875 C9.76910156 6.63591797 10.32726563 7.16636719 10.90234375 7.71289062 C12.484375 9.3046875 12.484375 9.3046875 14.8359375 12.41796875 C14.6875 15.3125 14.6875 15.3125 13.8359375 17.41796875 C12.0234375 18.04296875 12.0234375 18.04296875 9.8359375 18.41796875 C8.8459375 17.75796875 7.8559375 17.09796875 6.8359375 16.41796875 C5.8459375 17.40796875 4.8559375 18.39796875 3.8359375 19.41796875 C4.98767105 21.88596922 5.88377315 23.4658044 7.8359375 25.41796875 C7.4609375 28.04296875 7.4609375 28.04296875 6.8359375 30.41796875 C5.89363281 30.54042969 4.95132813 30.66289062 3.98046875 30.7890625 C-2.18172774 32.55035513 -6.2050812 37.98531715 -10.4765625 42.48046875 C-12.2624325 44.32735068 -14.05010041 46.17249633 -15.83984375 48.015625 C-16.62270752 48.83554932 -17.40557129 49.65547363 -18.2121582 50.50024414 C-20.1640625 52.41796875 -20.1640625 52.41796875 -22.1640625 53.41796875 C-24.17580443 53.3855213 -26.18754405 53.35278373 -28.19921875 53.31640625 C-30.57340012 53.43912735 -32.10748332 54.27542476 -34.1640625 55.41796875 C-35.1540625 55.08796875 -36.1440625 54.75796875 -37.1640625 54.41796875 C-38.10378906 55.3925 -38.10378906 55.3925 -39.0625 56.38671875 C-39.87976562 57.22203125 -40.69703125 58.05734375 -41.5390625 58.91796875 C-42.35117187 59.75328125 -43.16328125 60.58859375 -44 61.44921875 C-46.1640625 63.41796875 -46.1640625 63.41796875 -48.1640625 63.41796875 C-47.60276433 59.7972003 -46.34152791 58.40099959 -43.6015625 56.04296875 C-40.56248265 53.23933568 -40.56248265 53.23933568 -39.8515625 49.16796875 C-39.9546875 48.26046875 -40.0578125 47.35296875 -40.1640625 46.41796875 C-39.5040625 45.42796875 -38.8440625 44.43796875 -38.1640625 43.41796875 C-38.34783447 42.60956543 -38.53160645 41.80116211 -38.72094727 40.96826172 C-39.1640625 38.41796875 -39.1640625 38.41796875 -38.02709961 36.46533203 C-37.4419458 35.85415527 -36.85679199 35.24297852 -36.25390625 34.61328125 C-35.60534668 33.9265332 -34.95678711 33.23978516 -34.28857422 32.53222656 C-30.09855204 28.36242743 -25.8491319 24.2565792 -21.50976562 20.2421875 C-17.283247 16.34302493 -17.283247 16.34302493 -15.75390625 10.98828125 C-15.95693359 9.71597656 -15.95693359 9.71597656 -16.1640625 8.41796875 C-15.1640625 7.41796875 -15.1640625 7.41796875 -12.9140625 7.10546875 C-9.34085121 7.51151549 -7.774106 9.03164326 -5.1640625 11.41796875 C-3.45670949 10.3822828 -3.45670949 10.3822828 -2.1640625 8.41796875 C-2.48732803 4.82117809 -2.48732803 4.82117809 -3.1640625 1.41796875 C-2.1640625 0.41796875 -2.1640625 0.41796875 0 0 Z M0.8359375 10.41796875 C-0.4840625 12.06796875 -1.8040625 13.71796875 -3.1640625 15.41796875 C-1.1840625 16.40796875 -1.1840625 16.40796875 0.8359375 17.41796875 C2.1559375 15.76796875 3.4759375 14.11796875 4.8359375 12.41796875 C3.5159375 11.75796875 2.1959375 11.09796875 0.8359375 10.41796875 Z M-15.29711914 17.4375 C-16.21356201 18.35917969 -17.13000488 19.28085937 -18.07421875 20.23046875 C-18.56111679 20.71878174 -19.04801483 21.20709473 -19.54966736 21.71020508 C-21.11098388 23.2771388 -22.66879608 24.8475064 -24.2265625 26.41796875 C-25.28167278 27.47809181 -26.33700837 28.53799069 -27.39257812 29.59765625 C-29.98569657 32.2018265 -32.57568209 34.8090882 -35.1640625 37.41796875 C-34.4525 38.06765625 -34.4525 38.06765625 -33.7265625 38.73046875 C-32.1640625 40.41796875 -32.1640625 40.41796875 -31.1640625 43.41796875 C-32.1540625 43.08796875 -33.1440625 42.75796875 -34.1640625 42.41796875 C-32.67139508 46.21748581 -30.61125115 48.25345495 -27.1640625 50.41796875 C-22.41475392 50.21323591 -20.31148449 48.03526613 -17.08203125 44.7265625 C-16.39346794 44.02950951 -16.39346794 44.02950951 -15.69099426 43.31837463 C-14.23481515 41.83990192 -12.79320346 40.34810718 -11.3515625 38.85546875 C-10.36356152 37.84739368 -9.37463846 36.84022145 -8.38476562 35.83398438 C-5.96709857 33.37234421 -3.56229666 30.89856202 -1.1640625 28.41796875 C-2.85292634 24.80909834 -4.87261074 22.47152971 -7.7265625 19.66796875 C-8.53222656 18.86875 -9.33789062 18.06953125 -10.16796875 17.24609375 C-12.7306397 14.77000539 -12.7306397 14.77000539 -15.29711914 17.4375 Z M-36.1640625 47.41796875 C-36.1640625 48.40796875 -36.1640625 49.39796875 -36.1640625 50.41796875 C-35.1740625 50.74796875 -34.1840625 51.07796875 -33.1640625 51.41796875 C-33.8240625 50.09796875 -34.4840625 48.77796875 -35.1640625 47.41796875 C-35.4940625 47.41796875 -35.8240625 47.41796875 -36.1640625 47.41796875 Z " fill="#000000" transform="translate(49.1640625,-0.41796875)"/>
<path d="M0 0 C3.68754757 0.49831724 5.60490662 1.10067643 8 4 C7.67 4.99 7.34 5.98 7 7 C4.13302508 5.71480435 2.02392288 4.42870746 0 2 C0 1.34 0 0.68 0 0 Z " fill="#000000" transform="translate(24,28)"/>
<path d="M0 0 C3.26954202 0.56371414 4.82575883 1.49962266 7 4 C6.67 4.99 6.34 5.98 6 7 C3.53199953 5.84826645 1.95216435 4.95216435 0 3 C0 2.01 0 1.02 0 0 Z " fill="#000000" transform="translate(32,21)"/>
<path d="M0 0 C3.25543229 0.34879632 4.01873107 1.02133261 6.25 3.5625 C6.8275 4.366875 7.405 5.17125 8 6 C4 6 4 6 1.75 4.125 C0 2 0 2 0 0 Z " fill="#000000" transform="translate(17,35)"/>
<path d="M0 0 C1.32 0.33 2.64 0.66 4 1 C4 2.32 4 3.64 4 5 C2.68 4.34 1.36 3.68 0 3 C0 2.01 0 1.02 0 0 Z " fill="#000000" transform="translate(21,31)"/>
<path d="M0 0 C1.32 0.33 2.64 0.66 4 1 C3.67 2.32 3.34 3.64 3 5 C2.01 4.34 1.02 3.68 0 3 C0 2.01 0 1.02 0 0 Z " fill="#000000" transform="translate(28,24)"/>
<path d="M0 0 C1.32 0.33 2.64 0.66 4 1 C4 1.99 4 2.98 4 4 C2.68 3.67 1.36 3.34 0 3 C0 2.01 0 1.02 0 0 Z " fill="#000000" transform="translate(35,17)"/>
</svg>
