<?xml version="1.0" encoding="UTF-8"?>
<svg version="1.1" xmlns="http://www.w3.org/2000/svg" width="512" height="512">
<path d="M0 0 C1.08936356 -0.00860046 2.17872711 -0.01720093 3.30110168 -0.02606201 C4.50165192 -0.03032196 5.70220215 -0.03458191 6.93913269 -0.03897095 C8.19935745 -0.04714844 9.45958221 -0.05532593 10.75799561 -0.06375122 C14.94359701 -0.08997356 19.12920842 -0.10527885 23.31486511 -0.11953735 C24.75542902 -0.12489691 26.19599285 -0.13027442 27.63655663 -0.13566971 C33.62860274 -0.15729858 39.62064616 -0.17603555 45.61272144 -0.1872921 C54.20188612 -0.20353329 62.79059855 -0.23671441 71.37959272 -0.29369295 C77.41787786 -0.33238547 83.45604202 -0.35192392 89.49444789 -0.35721266 C93.10145212 -0.3608671 96.70797404 -0.37289687 100.31484413 -0.4053154 C104.33962042 -0.44097147 108.3634241 -0.43702707 112.38835144 -0.42959595 C113.58282898 -0.44600128 114.77730652 -0.46240662 116.00798035 -0.47930908 C124.99701319 -0.41119692 124.99701319 -0.41119692 128.07467651 2.56536865 C130.93283049 6.71442571 131.01137325 9.63784426 131.01896667 14.55355835 C131.02393158 15.31635101 131.02889648 16.07914368 131.03401184 16.86505127 C131.04864674 19.39493708 131.05543809 21.92476016 131.06095886 24.4546814 C131.06670978 26.21104433 131.07246752 27.96740725 131.07823181 29.72377014 C131.08874596 33.41003716 131.09458573 37.09628235 131.09806824 40.78256226 C131.10355003 45.50380287 131.12756948 50.22475465 131.15604019 54.94590473 C131.17467481 58.57561584 131.17987264 62.20525754 131.18140411 65.83501244 C131.18442995 67.57532516 131.19245617 69.31563668 131.20558929 71.05590248 C131.22266518 73.49284362 131.22076585 75.92908147 131.21427917 78.36605835 C131.22349396 79.08364822 131.23270874 79.8012381 131.24220276 80.54057312 C131.2057152 84.92171897 130.56219039 87.68132021 127.85783386 91.15390015 C124.76894864 93.21315696 124.14847459 93.39293755 120.67033386 93.27890015 C119.41220886 93.23765015 118.15408386 93.19640015 116.85783386 93.15390015 C116.88297428 106.76529492 116.88297428 106.76529492 121.85783386 119.15390015 C122.24584167 119.77393921 122.63384949 120.39397827 123.03361511 121.0328064 C127.30654098 126.8686904 133.44344094 129.21606509 139.85783386 132.15390015 C166.11134336 144.72352532 186.75592155 161.99856026 197.16551304 190.17791998 C202.55122851 205.54950289 202.4414064 221.087152 202.38073254 237.19451106 C202.37156798 240.80376046 202.38570656 244.41293684 202.39665222 248.02217102 C202.41431511 255.06401169 202.41065468 262.10568058 202.39900166 269.14752761 C202.3899283 274.86932326 202.38876007 280.59107114 202.39309692 286.31287193 C202.39370986 287.13049643 202.39432279 287.94812092 202.39495429 288.79052192 C202.39623329 290.45189766 202.39753015 292.11327339 202.39884466 293.77464911 C202.41021211 309.29969183 202.39719238 324.82463959 202.37564319 340.34966674 C202.35773189 353.66670129 202.36091682 366.98359654 202.37931824 380.30062866 C202.40071759 395.7943654 202.40915973 411.28801953 202.39686918 426.78176898 C202.39559504 428.43269041 202.39433756 430.08361185 202.39309692 431.73453331 C202.39217127 432.95277826 202.39217127 432.95277826 202.39122692 434.19563422 C202.38777446 439.91625351 202.39359917 445.63682026 202.40301514 451.35743141 C202.41422416 458.31965099 202.41121647 465.28169014 202.38989216 472.24388901 C202.37937358 475.79502686 202.37527398 479.34586367 202.38848877 482.89699936 C202.40258744 486.74365262 202.38576576 490.58981171 202.36576843 494.43644714 C202.37915276 496.12376464 202.37915276 496.12376464 202.39280748 497.84516937 C202.31637901 505.39159872 202.31637901 505.39159872 199.95108795 509.32374096 C196.9254402 511.96910401 195.30552723 512.27958326 191.37777996 512.28812122 C190.42939776 512.29257907 189.48101556 512.29703691 188.50389451 512.30162984 C187.45479285 512.30144548 186.4056912 512.30126112 185.32479858 512.30107117 C184.21589132 512.30474786 183.10698406 512.30842454 181.96447355 512.31221265 C178.22343737 512.32328557 174.48242893 512.32709941 170.74137878 512.3309021 C168.06942579 512.33716395 165.3974758 512.34379737 162.7255249 512.35081482 C154.68919156 512.37058932 146.65285694 512.38064645 138.61650535 512.38954261 C134.83409144 512.39392369 131.05167893 512.39929094 127.26926613 512.40453148 C114.6993282 512.42154435 102.12939115 512.43603937 89.55944347 512.44328022 C86.29652086 512.44519018 83.03359825 512.4471105 79.77067566 512.44906616 C78.55416867 512.44979177 78.55416867 512.44979177 77.31308577 512.45053204 C64.17009892 512.45883551 51.02720298 512.48417748 37.88425585 512.51664684 C24.39746855 512.54969464 10.91072749 512.56772689 -2.57610053 512.57092446 C-10.15124281 512.57309162 -17.72625248 512.58187032 -25.30135536 512.60738564 C-31.7515707 512.62906153 -38.20162123 512.63715848 -44.65186886 512.62741885 C-47.94370831 512.62286505 -51.23513544 512.62699139 -54.52694321 512.6441803 C-58.09431247 512.66176967 -61.66081139 512.65485619 -65.22817993 512.64164734 C-66.79179417 512.65810121 -66.79179417 512.65810121 -68.38699657 512.67488748 C-72.83281101 512.63499118 -75.40518882 512.60405009 -79.26179028 510.24841595 C-82.06231661 507.1289616 -82.26813534 505.43533257 -82.27638721 501.33534241 C-82.28084506 500.3113758 -82.2853029 499.28740919 -82.28989583 498.23241329 C-82.28971147 497.09879643 -82.28952711 495.96517958 -82.28933716 494.79721069 C-82.29301385 493.59947053 -82.29669053 492.40173037 -82.30047864 491.16769505 C-82.30961808 487.83208516 -82.314218 484.49652453 -82.31686795 481.16090679 C-82.3207669 477.5668276 -82.33034615 473.97276271 -82.33908081 470.37869263 C-82.35886661 461.68822368 -82.36891841 452.99775352 -82.3778086 444.30726767 C-82.38219187 440.21123269 -82.38755894 436.115199 -82.39279747 432.01916504 C-82.40981905 418.39325733 -82.42430862 404.76735043 -82.43154621 391.14143372 C-82.43345604 387.60327147 -82.43537637 384.06510924 -82.43733215 380.52694702 C-82.43781589 379.64757764 -82.43829963 378.76820826 -82.43879803 377.86219132 C-82.44708084 363.64807994 -82.47238386 349.43405319 -82.50491283 335.21997869 C-82.53806618 320.61328648 -82.55600281 306.00663712 -82.55919045 291.39990711 C-82.56134894 283.20451939 -82.569999 275.00925473 -82.59565163 266.81390381 C-82.61747273 259.82644175 -82.62535383 252.83913261 -82.61568484 245.85164034 C-82.61117159 242.29290866 -82.6128496 238.73449167 -82.63244629 235.17580414 C-82.79755966 203.37237154 -77.1513817 177.50940825 -54.14216614 154.15390015 C-44.2306146 144.2257741 -32.92887153 137.70626019 -20.14216614 132.15390015 C-10.56407357 127.97327358 -4.33167204 124.00132763 0.73283386 114.71640015 C2.96326312 107.94301069 2.62505006 100.21768435 2.85783386 93.15390015 C1.5984198 93.20288452 0.33900574 93.2518689 -0.95857239 93.30233765 C-4.63609731 93.44537342 -4.98618237 93.28001468 -8.07966614 90.77890015 C-11.30245556 86.67716816 -11.30035767 83.82155579 -11.31916809 78.77011108 C-11.32573929 78.00892471 -11.33231049 77.24773834 -11.33908081 76.46348572 C-11.35882914 73.93841456 -11.3704807 71.41340297 -11.38044739 68.88827515 C-11.38452291 68.02602577 -11.38859844 67.1637764 -11.39279747 66.27539825 C-11.41366625 61.71032449 -11.42796361 57.14528084 -11.43733215 52.58016968 C-11.44838927 47.86790867 -11.4827786 43.15612083 -11.52250385 38.44402695 C-11.5486703 34.81856416 -11.55702408 31.19321401 -11.56061363 27.5676651 C-11.56548071 25.83095357 -11.57709822 24.09424711 -11.59565163 22.35762787 C-11.62004095 19.9231286 -11.61907871 17.48985177 -11.61213684 15.05526733 C-11.6249469 14.34127274 -11.63775696 13.62727814 -11.6509552 12.89164734 C-11.59894538 7.87271876 -10.2946828 5.01802218 -7.14216614 1.15390015 C-4.6086179 -0.11287397 -2.8371396 0.01663574 0 0 Z M9.85783386 21.15390015 C9.85783386 37.98390015 9.85783386 54.81390015 9.85783386 72.15390015 C42.85783386 72.15390015 75.85783386 72.15390015 109.85783386 72.15390015 C109.85783386 55.32390015 109.85783386 38.49390015 109.85783386 21.15390015 C76.85783386 21.15390015 43.85783386 21.15390015 9.85783386 21.15390015 Z M24.85783386 93.15390015 C24.19783386 100.08390015 23.53783386 107.01390015 22.85783386 114.15390015 C20.72978745 122.36207918 17.96898357 128.4463546 12.85783386 135.15390015 C12.11533386 136.18515015 11.37283386 137.21640015 10.60783386 138.27890015 C3.51269784 145.69654235 -4.65800213 149.33850247 -14.02033997 153.09603882 C-21.08361418 155.98768672 -27.0345383 159.53790419 -33.14216614 164.15390015 C-34.19404114 164.91702515 -35.24591614 165.68015015 -36.32966614 166.46640015 C-51.5653223 181.02491603 -59.24894579 198.32847636 -61.14216614 219.15390015 C18.71783386 219.15390015 98.57783386 219.15390015 180.85783386 219.15390015 C179.02918798 199.03879545 171.55376386 180.83577823 156.41252136 166.90390015 C148.39610664 160.2696259 140.13673484 155.5887358 130.48283386 151.84140015 C119.5671959 147.54668356 109.99237013 141.46225065 103.85783386 131.15390015 C103.40924011 130.41784546 102.96064636 129.68179077 102.49845886 128.9234314 C96.2656742 117.68608728 95.76217098 105.8146198 94.85783386 93.15390015 C71.75783386 93.15390015 48.65783386 93.15390015 24.85783386 93.15390015 Z M-61.14216614 241.15390015 C-61.14216614 294.28390015 -61.14216614 347.41390015 -61.14216614 402.15390015 C18.71783386 402.15390015 98.57783386 402.15390015 180.85783386 402.15390015 C180.85783386 349.02390015 180.85783386 295.89390015 180.85783386 241.15390015 C100.99783386 241.15390015 21.13783386 241.15390015 -61.14216614 241.15390015 Z M-61.14216614 423.15390015 C-61.14216614 445.59390015 -61.14216614 468.03390015 -61.14216614 491.15390015 C18.71783386 491.15390015 98.57783386 491.15390015 180.85783386 491.15390015 C180.85783386 468.71390015 180.85783386 446.27390015 180.85783386 423.15390015 C100.99783386 423.15390015 21.13783386 423.15390015 -61.14216614 423.15390015 Z " fill="#000000" transform="translate(196.1421661376953,-0.153900146484375)"/>
<path d="M0 0 C1.04002419 -0.01270432 1.04002419 -0.01270432 2.10105896 -0.02566528 C4.38274708 -0.04897807 6.66375865 -0.05005891 8.94555664 -0.04882812 C10.53829719 -0.05593298 12.1310352 -0.06363246 13.72377014 -0.07189941 C17.0584322 -0.08533088 20.39285756 -0.08691897 23.72753906 -0.08105469 C27.99267304 -0.07515842 32.25666875 -0.10575196 36.5215826 -0.14617157 C39.80996274 -0.17206965 43.0980695 -0.17492416 46.38653755 -0.17127991 C47.95857162 -0.17296907 49.53061858 -0.1825921 51.10255241 -0.20042419 C53.30481199 -0.22265928 55.50477691 -0.21289314 57.70703125 -0.1953125 C59.58303261 -0.19839417 59.58303261 -0.19839417 61.49693298 -0.20153809 C66.03440591 0.62267327 67.67123013 2.19527651 70.91821289 5.41992188 C72.69278651 9.37272749 72.13844619 12.79399566 70.73071289 16.79492188 C68.77407432 19.62867428 68.07127792 20.26176992 64.91821289 21.41992188 C61.70620728 21.69407654 61.70620728 21.69407654 57.8581543 21.72631836 C56.8037188 21.73880363 56.8037188 21.73880363 55.72798157 21.75154114 C53.40852285 21.77559893 51.08934557 21.78440781 48.76977539 21.79101562 C47.15318723 21.79998501 45.53659991 21.80910692 43.92001343 21.81837463 C40.53234848 21.83485557 37.14478225 21.84256313 33.75708008 21.84545898 C29.42359051 21.85084271 25.09103315 21.8885251 20.75780678 21.93420315 C17.41883992 21.96399675 14.08009697 21.97118302 10.74100876 21.97218513 C9.14384058 21.97638272 7.54667144 21.98879862 5.94963455 22.00970268 C3.7114193 22.03666809 1.4753572 22.0317789 -0.76293945 22.01928711 C-2.03438812 22.02435776 -3.30583679 22.02942841 -4.61581421 22.03465271 C-9.23164595 21.21598096 -10.8287621 19.75823838 -14.08178711 16.41992188 C-15.34550935 12.33140875 -15.35588781 10.21176835 -13.95678711 6.16992188 C-10.26641558 0.75737697 -6.3295559 0.04263615 0 0 Z " fill="#000000" transform="translate(289.081787109375,454.580078125)"/>
<path d="M0 0 C3.31608226 1.22649618 3.8623249 1.98210575 6 5 C7.38016559 9.00328732 7.46474425 11.89928993 5.8125 15.8125 C2.90814811 19.31775228 1.17056057 20.84145907 -3.4609375 21.46875 C-15.33888699 21.56358393 -15.33888699 21.56358393 -18.875 18.9375 C-21.44314951 15.38741097 -22.07681675 13.37855493 -22 9 C-18.12198385 -1.61351789 -9.88855752 -1.11783694 0 0 Z " fill="#000000" transform="translate(255,455)"/>
</svg>
