<?xml version="1.0" encoding="UTF-8"?>
<svg version="1.1" xmlns="http://www.w3.org/2000/svg" width="96" height="96">
<path d="M0 0 C7.86411487 7.50271254 7.86411487 7.50271254 8.17700195 13.25292969 C8.20397616 14.64246645 8.22391472 16.0321507 8.23828125 17.421875 C8.246353 18.15948059 8.25442474 18.89708618 8.26274109 19.65704346 C8.27658051 21.22055716 8.28730331 22.78410106 8.29516602 24.34765625 C8.31233516 26.72715445 8.35621387 29.10524693 8.40039062 31.484375 C8.41052183 33.00519814 8.4190366 34.52603307 8.42578125 36.046875 C8.44328934 36.75334167 8.46079742 37.45980835 8.47883606 38.18768311 C8.4567486 43.27471805 7.16104981 46.0701823 4 50 C-9.07544605 62.48110759 -26.51100038 63.5937108 -43.68994141 63.47436523 C-56.80062881 63.15647135 -72.17428154 61.46608066 -82.125 51.97265625 C-86.84228869 46.71325978 -88.16531982 43.63593752 -88.23828125 36.578125 C-88.246353 35.84051941 -88.25442474 35.10291382 -88.26274109 34.34295654 C-88.27658051 32.77944284 -88.28730331 31.21589894 -88.29516602 29.65234375 C-88.31233516 27.27284555 -88.35621387 24.89475307 -88.40039062 22.515625 C-88.41052183 20.99480186 -88.4190366 19.47396693 -88.42578125 17.953125 C-88.44328934 17.24665833 -88.46079742 16.54019165 -88.47883606 15.81231689 C-88.4567486 10.72528195 -87.16104981 7.9298177 -84 4 C-64.54735434 -14.56843449 -21.6779035 -15.26220044 0 0 Z M-46 -4 C-41.80770526 4.06539278 -36.75755843 11.53646111 -31.6875 19.0625 C-30.84277423 20.32204791 -29.99837075 21.58181201 -29.15429688 22.84179688 C-27.10657032 25.89703024 -25.05451116 28.94932356 -23 32 C-13.48903647 30.99989868 -6.51113965 27.978254 1 22 C3.47057911 18.29413133 3.65867944 15.29830556 3 11 C-1.32784572 3.24594309 -10.17742739 0.1924741 -18.265625 -2.15234375 C-27.1951106 -4.1792249 -36.98078333 -5.89878246 -46 -4 Z M-53 -4 C-55.47564729 -3.58234801 -57.72470513 -3.06626637 -60.125 -2.375 C-60.80353027 -2.18550781 -61.48206055 -1.99601562 -62.18115234 -1.80078125 C-70.35963149 0.56672482 -78.11856382 3.67784574 -83 11 C-83.42509005 15.39259714 -83.65305152 17.82994935 -81.5 21.6875 C-69.55619879 32.73551612 -51.98196025 35.33112889 -36.18359375 34.89453125 C-33.43733454 34.67081002 -30.73014066 34.36184747 -28 34 C-31.83328601 26.64548198 -36.34178466 19.77156367 -40.95776367 12.89526367 C-42.19961342 11.0444465 -43.43510577 9.18949975 -44.66992188 7.33398438 C-48.47349623 1.37916367 -48.47349623 1.37916367 -53 -4 Z M-84 26 C-84.70040183 36.50115276 -84.70040183 36.50115276 -81 46 C-69.37618361 56.81660692 -52.62725336 58.88855668 -37.33203125 59.03515625 C-24.36169965 58.43427083 -8.50114351 55.50114351 1 46 C4.90540288 39.67055395 4.29470756 33.25853798 4 26 C3.28650391 26.56267578 3.28650391 26.56267578 2.55859375 27.13671875 C-14.1882107 39.38069917 -36.78451233 40.0107491 -56.70898438 37.68359375 C-66.68141159 35.96736985 -75.9986383 32.21727429 -84 26 Z " fill="#000000" transform="translate(88,21)"/>
</svg>
